<svg width="79" height="79" viewBox="0 0 79 79" fill="none" xmlns="http://www.w3.org/2000/svg">
<path d="M30.1 11.7C30.1 9.87002 30.8269 8.11498 32.1209 6.82098C33.4149 5.52697 35.17 4.80001 37 4.80001C38.8299 4.80001 40.585 5.52697 41.879 6.82098C43.173 8.11498 43.9 9.87002 43.9 11.7C43.9 13.53 43.173 15.285 41.879 16.5791C40.585 17.8731 38.8299 18.6 37 18.6C35.17 18.6 33.4149 17.8731 32.1209 16.5791C30.8269 15.285 30.1 13.53 30.1 11.7ZM37 0.200012C33.95 0.200012 31.0249 1.41162 28.8682 3.56828C26.7116 5.72495 25.5 8.65002 25.5 11.7C25.5 14.75 26.7116 17.6751 28.8682 19.8317C31.0249 21.9884 33.95 23.2 37 23.2C40.0499 23.2 42.975 21.9884 45.1317 19.8317C47.2883 17.6751 48.5 14.75 48.5 11.7C48.5 8.65002 47.2883 5.72495 45.1317 3.56828C42.975 1.41162 40.0499 0.200012 37 0.200012ZM57.7 14C57.7 12.78 58.1846 11.61 59.0473 10.7473C59.9099 9.88465 61.08 9.40001 62.2999 9.40001C63.5199 9.40001 64.69 9.88465 65.5526 10.7473C66.4153 11.61 66.8999 12.78 66.8999 14C66.8999 15.22 66.4153 16.39 65.5526 17.2527C64.69 18.1154 63.5199 18.6 62.2999 18.6C61.08 18.6 59.9099 18.1154 59.0473 17.2527C58.1846 16.39 57.7 15.22 57.7 14ZM62.2999 4.80001C59.86 4.80001 57.5199 5.76929 55.7946 7.49463C54.0692 9.21996 53.0999 11.56 53.0999 14C53.0999 16.44 54.0692 18.7801 55.7946 20.5054C57.5199 22.2307 59.86 23.2 62.2999 23.2C64.7399 23.2 67.08 22.2307 68.8053 20.5054C70.5307 18.7801 71.4999 16.44 71.4999 14C71.4999 11.56 70.5307 9.21996 68.8053 7.49463C67.08 5.76929 64.7399 4.80001 62.2999 4.80001ZM11.7 9.40001C10.48 9.40001 9.30993 9.88465 8.44726 10.7473C7.58459 11.61 7.09995 12.78 7.09995 14C7.09995 15.22 7.58459 16.39 8.44726 17.2527C9.30993 18.1154 10.48 18.6 11.7 18.6C12.9199 18.6 14.09 18.1154 14.9526 17.2527C15.8153 16.39 16.3 15.22 16.3 14C16.3 12.78 15.8153 11.61 14.9526 10.7473C14.09 9.88465 12.9199 9.40001 11.7 9.40001ZM2.49995 14C2.49995 11.56 3.46923 9.21996 5.19457 7.49463C6.9199 5.76929 9.25996 4.80001 11.7 4.80001C14.1399 4.80001 16.48 5.76929 18.2053 7.49463C19.9307 9.21996 20.9 11.56 20.9 14C20.9 16.44 19.9307 18.7801 18.2053 20.5054C16.48 22.2307 14.1399 23.2 11.7 23.2C9.25996 23.2 6.9199 22.2307 5.19457 20.5054C3.46923 18.7801 2.49995 16.44 2.49995 14ZM14 60C14.1518 60 14.3082 60 14.46 59.9908C14.7728 61.5456 15.2465 63.0498 15.8583 64.4758C13.9069 64.741 11.9214 64.5855 10.0351 64.0197C8.14874 63.4539 6.40538 62.4909 4.9221 61.1954C3.43883 59.8999 2.25001 58.302 1.43552 56.509C0.621029 54.7159 0.199737 52.7694 0.199951 50.8V33.55C0.199951 30.376 2.77595 27.8 5.94995 27.8H15.7434C14.8217 29.1759 14.2457 30.7539 14.0644 32.4H5.94995C5.64495 32.4 5.35245 32.5212 5.13678 32.7368C4.92111 32.9525 4.79995 33.245 4.79995 33.55V50.8C4.79995 53.24 5.76923 55.5801 7.49457 57.3054C9.2199 59.0307 11.56 60 14 60ZM55.285 32.4C54.7514 29.778 52.4329 27.8 49.65 27.8H24.35C21.176 27.8 18.6 30.376 18.6 33.55V55.4C18.6001 57.9131 19.115 60.3996 20.113 62.706C21.111 65.0125 22.5709 67.0901 24.4026 68.8107C26.2344 70.5312 28.3992 71.8583 30.7636 72.7101C33.128 73.5619 35.6417 73.9203 38.15 73.7632C36.9601 72.317 35.9341 70.7434 35.091 69.0712C31.793 68.6106 28.7729 66.973 26.5875 64.4605C24.4022 61.9479 23.199 58.73 23.2 55.4V33.55C23.2 33.245 23.3211 32.9525 23.5368 32.7368C23.7524 32.5212 24.045 32.4 24.35 32.4H55.285ZM59.9356 32.4H68.0499C68.3549 32.4 68.6475 32.5212 68.8631 32.7368C69.0788 32.9525 69.2 33.245 69.2 33.55V35.16C70.8467 36.0018 72.3877 37.0184 73.7999 38.1822V33.55C73.7999 30.376 71.224 27.8 68.0499 27.8H58.2565C59.1581 29.1432 59.7515 30.7118 59.9356 32.4ZM57.7 37C52.21 37 46.9448 39.1809 43.0628 43.0629C39.1808 46.9449 37 52.21 37 57.7C37 63.19 39.1808 68.4551 43.0628 72.3371C46.9448 76.2191 52.21 78.4 57.7 78.4C63.1899 78.4 68.4551 76.2191 72.3371 72.3371C76.2191 68.4551 78.3999 63.19 78.3999 57.7C78.3999 52.21 76.2191 46.9449 72.3371 43.0629C68.4551 39.1809 63.1899 37 57.7 37ZM57.7 46.2C58.3099 46.2 58.895 46.4423 59.3263 46.8737C59.7576 47.305 60 47.89 60 48.5V55.4H66.8999C67.5099 55.4 68.095 55.6423 68.5263 56.0737C68.9576 56.505 69.2 57.09 69.2 57.7C69.2 58.31 68.9576 58.895 68.5263 59.3264C68.095 59.7577 67.5099 60 66.8999 60H60V66.9C60 67.51 59.7576 68.095 59.3263 68.5264C58.895 68.9577 58.3099 69.2 57.7 69.2C57.09 69.2 56.5049 68.9577 56.0736 68.5264C55.6423 68.095 55.3999 67.51 55.3999 66.9V60H48.5C47.89 60 47.3049 59.7577 46.8736 59.3264C46.4423 58.895 46.2 58.31 46.2 57.7C46.2 57.09 46.4423 56.505 46.8736 56.0737C47.3049 55.6423 47.89 55.4 48.5 55.4H55.3999V48.5C55.3999 47.89 55.6423 47.305 56.0736 46.8737C56.5049 46.4423 57.09 46.2 57.7 46.2Z" fill="#00DADA"/>
</svg>
