<svg width="22" height="16" viewBox="0 0 22 16" fill="none" xmlns="http://www.w3.org/2000/svg">
<path d="M15.55 11.9002C15.3776 11.9002 15.2123 11.9687 15.0904 12.0906C14.9685 12.2125 14.9 12.3778 14.9 12.5502C14.9 12.7226 14.9685 12.8879 15.0904 13.0098C15.2123 13.1317 15.3776 13.2002 15.55 13.2002H18.15C18.3224 13.2002 18.4877 13.1317 18.6096 13.0098C18.7315 12.8879 18.8 12.7226 18.8 12.5502C18.8 12.3778 18.7315 12.2125 18.6096 12.0906C18.4877 11.9687 18.3224 11.9002 18.15 11.9002H15.55ZM0.599976 3.7752C0.599976 2.82705 0.976626 1.91773 1.64707 1.24729C2.31751 0.576846 3.22683 0.200195 4.17498 0.200195H17.825C18.7731 0.200195 19.6824 0.576846 20.3529 1.24729C21.0233 1.91773 21.4 2.82705 21.4 3.7752V12.2252C21.4 13.1733 21.0233 14.0827 20.3529 14.7531C19.6824 15.4235 18.7731 15.8002 17.825 15.8002H4.17498C3.22683 15.8002 2.31751 15.4235 1.64707 14.7531C0.976626 14.0827 0.599976 13.1733 0.599976 12.2252V3.7752ZM4.17498 1.5002C3.57161 1.5002 2.99295 1.73988 2.56631 2.16653C2.13966 2.59317 1.89998 3.17183 1.89998 3.7752V5.4002H20.1V3.7752C20.1 3.17183 19.8603 2.59317 19.4336 2.16653C19.007 1.73988 18.4283 1.5002 17.825 1.5002H4.17498ZM20.1 6.7002H1.89998V12.2252C1.89998 13.481 2.91918 14.5002 4.17498 14.5002H17.825C18.4283 14.5002 19.007 14.2605 19.4336 13.8339C19.8603 13.4072 20.1 12.8286 20.1 12.2252V6.7002Z" fill="#626262"/>
</svg>
