<svg width="78" height="70" viewBox="0 0 78 70" fill="none" xmlns="http://www.w3.org/2000/svg">
<path d="M49.5571 27.3333C53.2601 27.3333 56.2654 30.3387 56.2654 34.0417V52.2462C56.2654 56.8222 54.4476 61.2108 51.2119 64.4465C47.9762 67.6822 43.5876 69.5 39.0116 69.5C34.4356 69.5 30.047 67.6822 26.8113 64.4465C23.5756 61.2108 21.7577 56.8222 21.7577 52.2462V34.0417C21.7577 30.3387 24.7592 27.3333 28.4661 27.3333H49.5571ZM49.5571 33.0833H28.4661C28.2119 33.0833 27.9682 33.1843 27.7884 33.364C27.6087 33.5437 27.5077 33.7875 27.5077 34.0417V52.2462C27.5077 55.2972 28.7198 58.2232 30.8771 60.3806C33.0345 62.538 35.9606 63.75 39.0116 63.75C42.0626 63.75 44.9886 62.538 47.146 60.3806C49.3034 58.2232 50.5154 55.2972 50.5154 52.2462V34.0417C50.5154 33.7875 50.4144 33.5437 50.2347 33.364C50.055 33.1843 49.8112 33.0833 49.5571 33.0833ZM7.37508 27.3333H20.3356C18.9832 28.9667 18.1572 30.9714 17.9666 33.0833H7.37508C7.12091 33.0833 6.87716 33.1843 6.69744 33.364C6.51771 33.5437 6.41675 33.7875 6.41675 34.0417V46.4962C6.4165 47.9447 6.74451 49.3745 7.37612 50.6781C8.00774 51.9817 8.92655 53.1252 10.0635 54.0228C11.2005 54.9203 12.5261 55.5486 13.9407 55.8603C15.3553 56.172 16.8222 56.1592 18.2311 55.8227C18.5569 57.7547 19.1511 59.5985 19.9676 61.312C17.6955 61.9198 15.314 61.997 13.0074 61.5374C10.7007 61.0779 8.53063 60.094 6.66494 58.6619C4.79925 57.2297 3.28794 55.3877 2.24786 53.2782C1.20778 51.1686 0.666795 48.8482 0.666748 46.4962V34.0417C0.666748 30.3387 3.67208 27.3333 7.37508 27.3333ZM57.6876 27.3333H70.6251C74.3281 27.3333 77.3334 30.3387 77.3334 34.0417V46.5C77.3339 48.8505 76.7941 51.1696 75.7556 53.2782C74.717 55.3868 73.2077 57.2284 71.3441 58.6607C69.4805 60.0931 67.3125 61.0778 65.0077 61.5389C62.7029 61.9999 60.3229 61.9249 58.0517 61.3197C58.8721 59.6023 59.4662 57.7585 59.7959 55.8265C61.2031 56.1591 62.6672 56.1689 64.0787 55.8553C65.4902 55.5416 66.8125 54.9127 67.9464 54.0155C69.0803 53.1183 69.9965 51.9762 70.6264 50.6746C71.2562 49.3731 71.5834 47.9459 71.5834 46.5V34.0417C71.5834 33.7875 71.4824 33.5437 71.3027 33.364C71.123 33.1843 70.8792 33.0833 70.6251 33.0833H60.0566C59.8659 30.9714 59.04 28.9667 57.6876 27.3333ZM39.0001 0.5C42.0501 0.5 44.9751 1.7116 47.1318 3.86827C49.2885 6.02494 50.5001 8.95001 50.5001 12C50.5001 15.05 49.2885 17.9751 47.1318 20.1317C44.9751 22.2884 42.0501 23.5 39.0001 23.5C35.9501 23.5 33.025 22.2884 30.8683 20.1317C28.7117 17.9751 27.5001 15.05 27.5001 12C27.5001 8.95001 28.7117 6.02494 30.8683 3.86827C33.025 1.7116 35.9501 0.5 39.0001 0.5ZM63.9167 4.33333C66.4584 4.33333 68.896 5.343 70.6932 7.14023C72.4904 8.93745 73.5001 11.375 73.5001 13.9167C73.5001 16.4583 72.4904 18.8959 70.6932 20.6931C68.896 22.4903 66.4584 23.5 63.9167 23.5C61.3751 23.5 58.9375 22.4903 57.1403 20.6931C55.3431 18.8959 54.3334 16.4583 54.3334 13.9167C54.3334 11.375 55.3431 8.93745 57.1403 7.14023C58.9375 5.343 61.3751 4.33333 63.9167 4.33333ZM14.0834 4.33333C16.6251 4.33333 19.0626 5.343 20.8599 7.14023C22.6571 8.93745 23.6667 11.375 23.6667 13.9167C23.6667 16.4583 22.6571 18.8959 20.8599 20.6931C19.0626 22.4903 16.6251 23.5 14.0834 23.5C11.5418 23.5 9.1042 22.4903 7.30697 20.6931C5.50975 18.8959 4.50008 16.4583 4.50008 13.9167C4.50008 11.375 5.50975 8.93745 7.30697 7.14023C9.1042 5.343 11.5418 4.33333 14.0834 4.33333ZM39.0001 6.25C37.4751 6.25 36.0125 6.8558 34.9342 7.93413C33.8559 9.01247 33.2501 10.475 33.2501 12C33.2501 13.525 33.8559 14.9875 34.9342 16.0659C36.0125 17.1442 37.4751 17.75 39.0001 17.75C40.5251 17.75 41.9876 17.1442 43.0659 16.0659C44.1443 14.9875 44.7501 13.525 44.7501 12C44.7501 10.475 44.1443 9.01247 43.0659 7.93413C41.9876 6.8558 40.5251 6.25 39.0001 6.25ZM63.9167 10.0833C62.9001 10.0833 61.925 10.4872 61.2062 11.2061C60.4873 11.925 60.0834 12.9 60.0834 13.9167C60.0834 14.9333 60.4873 15.9084 61.2062 16.6272C61.925 17.3461 62.9001 17.75 63.9167 17.75C64.9334 17.75 65.9084 17.3461 66.6273 16.6272C67.3462 15.9084 67.7501 14.9333 67.7501 13.9167C67.7501 12.9 67.3462 11.925 66.6273 11.2061C65.9084 10.4872 64.9334 10.0833 63.9167 10.0833ZM14.0834 10.0833C13.0667 10.0833 12.0917 10.4872 11.3728 11.2061C10.6539 11.925 10.2501 12.9 10.2501 13.9167C10.2501 14.9333 10.6539 15.9084 11.3728 16.6272C12.0917 17.3461 13.0667 17.75 14.0834 17.75C15.1001 17.75 16.0751 17.3461 16.794 16.6272C17.5129 15.9084 17.9167 14.9333 17.9167 13.9167C17.9167 12.9 17.5129 11.925 16.794 11.2061C16.0751 10.4872 15.1001 10.0833 14.0834 10.0833Z" fill="#FF9C54"/>
</svg>
