<svg width="18" height="18" viewBox="0 0 18 18" fill="none" xmlns="http://www.w3.org/2000/svg">
<path d="M1.55561 14.4055C1.96089 13.4455 2.54903 12.5735 3.28725 11.8381C4.02324 11.1005 4.89508 10.5125 5.85463 10.1064C5.86323 10.1021 5.87182 10.1 5.88042 10.0957C4.54194 9.12891 3.67182 7.5541 3.67182 5.77734C3.67182 2.83398 6.05659 0.449219 8.99995 0.449219C11.9433 0.449219 14.3281 2.83398 14.3281 5.77734C14.3281 7.5541 13.458 9.12891 12.1195 10.0979C12.1281 10.1021 12.1367 10.1043 12.1453 10.1086C13.1078 10.5146 13.9714 11.0969 14.7126 11.8402C15.4502 12.5762 16.0382 13.4481 16.4443 14.4076C16.8432 15.347 17.0583 16.3542 17.0781 17.3746C17.0786 17.3975 17.0746 17.4204 17.0662 17.4417C17.0579 17.4631 17.0453 17.4825 17.0293 17.4989C17.0133 17.5153 16.9941 17.5284 16.973 17.5373C16.9518 17.5462 16.9291 17.5508 16.9062 17.5508H15.6171C15.5226 17.5508 15.4474 17.4756 15.4453 17.3832C15.4023 15.7246 14.7363 14.1713 13.5589 12.9939C12.3408 11.7758 10.723 11.1055 8.99995 11.1055C7.2769 11.1055 5.65913 11.7758 4.44096 12.9939C3.26362 14.1713 2.5976 15.7246 2.55464 17.3832C2.55249 17.4777 2.47729 17.5508 2.38276 17.5508H1.0937C1.07076 17.5508 1.04805 17.5462 1.02692 17.5373C1.00578 17.5284 0.986637 17.5153 0.970619 17.4989C0.954601 17.4825 0.942032 17.4631 0.933651 17.4417C0.925272 17.4204 0.921249 17.3975 0.921824 17.3746C0.943308 16.3477 1.156 15.3486 1.55561 14.4055ZM8.99995 9.47266C9.98608 9.47266 10.9142 9.08809 11.6124 8.38984C12.3107 7.6916 12.6953 6.76348 12.6953 5.77734C12.6953 4.79121 12.3107 3.86309 11.6124 3.16484C10.9142 2.4666 9.98608 2.08203 8.99995 2.08203C8.01381 2.08203 7.08569 2.4666 6.38745 3.16484C5.68921 3.86309 5.30464 4.79121 5.30464 5.77734C5.30464 6.76348 5.68921 7.6916 6.38745 8.38984C7.08569 9.08809 8.01381 9.47266 8.99995 9.47266Z" fill="#626262"/>
</svg>
