<svg width="343" height="277" viewBox="0 0 343 277" fill="none" xmlns="http://www.w3.org/2000/svg">
<path d="M195.401 245.055C193.029 241.729 189.818 239.295 185.782 238.384C182.262 237.589 178.643 237.725 175.065 237.752L129.825 238.102C125.95 238.132 122.235 241.494 122.415 245.523C122.594 249.519 125.672 252.977 129.825 252.945C143.077 252.843 156.329 252.74 169.582 252.638C172.706 252.614 175.832 252.557 178.956 252.568C179.658 252.57 180.357 252.607 181.058 252.615C181.228 252.617 181.35 252.615 181.437 252.612C181.458 252.618 181.477 252.624 181.505 252.632C181.871 252.733 182.246 252.802 182.614 252.898C182.485 252.901 182.852 253.131 183.037 253.209C183.062 253.259 183.116 253.348 183.206 253.485C183.332 253.722 183.705 254.44 183.72 254.417C184.281 255.836 184.743 257.292 185.104 258.774C185.965 262.043 186.154 262.726 186.278 265.793C186.435 269.667 189.574 273.399 193.687 273.215C197.568 273.041 201.265 269.948 201.097 265.793C200.814 258.792 199.587 250.927 195.401 245.055Z" fill="#E6E6E6"/>
<path d="M132.484 261.803C131.634 256.645 130.801 251.484 129.935 246.329C129.056 241.1 127.26 236.311 123.198 232.879C122.112 231.962 120.986 231.106 119.856 230.252C119.458 229.952 119.062 229.652 118.669 229.345C118.645 229.327 118.63 229.315 118.61 229.299C118.567 229.262 118.515 229.218 118.445 229.159C116.752 227.723 115.116 226.224 113.557 224.63C112.173 223.215 110.85 221.739 109.586 220.203C109.271 219.819 108.959 219.432 108.652 219.041C108.599 218.974 108.314 218.605 108.126 218.365C107.952 218.124 107.632 217.689 107.579 217.613C107.22 217.104 106.867 216.59 106.52 216.072C104.16 212.53 102.117 208.787 100.413 204.886C100.245 204.499 100.08 204.11 99.9187 203.718C99.8755 203.599 99.8196 203.446 99.7455 203.241C99.4022 202.296 99.0596 201.351 98.7458 200.395C98.079 198.363 97.5057 196.301 97.0259 194.209C96.7887 193.176 96.5752 192.138 96.3854 191.094C96.2874 190.557 96.1959 190.02 96.1106 189.481C96.0966 189.391 96.0134 188.81 95.9643 188.482C95.9281 188.152 95.8608 187.567 95.8517 187.477C95.7975 186.934 95.7493 186.39 95.7072 185.846C95.6125 184.621 95.5484 183.395 95.5151 182.166C95.4581 179.982 95.4971 177.799 95.6322 175.615C95.7091 174.389 95.8185 173.165 95.9533 171.944C95.9614 171.869 95.9677 171.809 95.9736 171.755C95.9818 171.701 95.9913 171.639 96.0026 171.562C96.1023 170.887 96.2072 170.213 96.3246 169.541C96.769 166.99 97.347 164.464 98.0562 161.974C98.392 160.796 98.7567 159.628 99.1504 158.47C99.3258 157.955 99.5069 157.443 99.6935 156.932C99.6813 156.965 100.241 155.534 100.248 155.485C102.469 150.23 106.101 145.44 106.106 139.47C106.109 135.429 102.695 131.557 98.6963 131.744C96.7024 131.819 94.8156 132.667 93.4334 134.108C92.0512 135.549 91.2816 137.472 91.2869 139.47C91.2869 139.561 91.2864 139.639 91.2862 139.714C91.2489 139.84 91.2177 139.945 91.1896 140.037C90.7566 140.98 90.2261 141.876 89.7508 142.795C88.4493 145.31 87.3384 147.909 86.2831 150.545C84.5555 154.838 83.2331 159.284 82.3332 163.824C80.3774 173.772 80.2256 183.991 81.8851 193.993C84.7579 211.533 94.2318 228.322 107.403 239.608C108.546 240.587 109.717 241.534 110.899 242.461C111.388 242.845 111.881 243.221 112.376 243.595C112.611 243.772 113.581 244.539 113.154 244.167C114.072 244.952 114.459 245.347 114.695 245.925C114.729 246.059 114.775 246.239 114.838 246.487C115.005 247.139 115.162 247.789 115.294 248.45C116.44 254.226 117.237 260.098 118.195 265.911C118.853 269.905 123.762 272.505 127.309 271.308C131.438 269.914 133.189 266.083 132.484 261.803Z" fill="#E6E6E6"/>
<path d="M196.15 276.783C193.039 276.791 190.051 275.563 187.842 273.367C185.633 271.171 184.385 268.188 184.369 265.071V256.605C175.52 257.597 145.218 257.367 136.532 255.969V264.732C136.509 267.847 135.257 270.826 133.05 273.02C130.844 275.213 127.86 276.445 124.751 276.445C121.642 276.445 118.658 275.213 116.452 273.02C114.245 270.826 112.993 267.847 112.97 264.732V247.527C101.205 240.981 91.398 231.409 84.5599 219.798C77.7218 208.188 74.1007 194.96 74.0703 181.48C74.0703 158.367 84.5282 136.805 102.763 122.324C114.619 112.877 129.024 107.195 144.127 106.009C146.177 105.848 148.24 105.766 150.258 105.766C157.367 105.766 189.444 106.866 197.492 109.185L215.844 90.9461C216.113 90.6743 216.458 90.4891 216.833 90.4142C217.208 90.3393 217.597 90.3781 217.951 90.5255C218.306 90.6673 218.611 90.9136 218.825 91.232C219.038 91.5504 219.151 91.9261 219.147 92.3098V95.2097L222.721 91.665C222.99 91.3929 223.334 91.2075 223.709 91.1324C224.084 91.0574 224.473 91.0961 224.826 91.2437C225.182 91.3854 225.487 91.6318 225.701 91.9503C225.915 92.2689 226.028 92.6448 226.024 93.0286V125.435C235.233 133.751 242.251 144.213 246.458 155.894C250.664 167.576 251.929 180.117 250.139 192.405C248.35 204.693 243.562 216.35 236.199 226.341C228.837 236.333 219.127 244.351 207.931 249.685V265.071C207.916 268.188 206.667 271.171 204.459 273.367C202.25 275.563 199.262 276.791 196.15 276.783ZM185.295 255.553V265.071C185.319 267.939 186.473 270.682 188.506 272.702C190.539 274.722 193.287 275.855 196.15 275.855C199.014 275.855 201.762 274.722 203.795 272.702C205.828 270.682 206.982 267.939 207.005 265.071V249.099L207.27 248.974C219.832 243.003 230.497 233.661 238.079 221.986C247.742 207.088 251.76 189.217 249.407 171.608C247.054 154 238.486 137.816 225.252 125.988L225.098 125.849V93.0286C225.102 92.8292 225.044 92.6336 224.933 92.4681C224.822 92.3026 224.662 92.1751 224.477 92.103C224.292 92.0239 224.088 92.0026 223.892 92.0418C223.695 92.0809 223.514 92.1788 223.374 92.3224L218.221 97.4343V92.3097C218.225 92.1103 218.167 91.9147 218.056 91.7492C217.945 91.5837 217.785 91.4563 217.6 91.3841C217.415 91.3052 217.211 91.2841 217.013 91.3235C216.816 91.363 216.636 91.4611 216.495 91.6051L197.751 110.235L197.485 110.151C190.003 107.806 157.421 106.694 150.258 106.694C148.264 106.694 146.226 106.774 144.2 106.934C129.28 108.105 115.05 113.718 103.338 123.051C85.3266 137.355 74.9963 158.652 74.9963 181.48C75.0271 194.841 78.6289 207.95 85.4275 219.445C92.2261 230.94 101.973 240.402 113.657 246.849L113.896 246.981V264.732C113.92 267.6 115.074 270.343 117.107 272.362C119.14 274.382 121.888 275.515 124.751 275.515C127.614 275.515 130.362 274.382 132.395 272.362C134.428 270.343 135.582 267.6 135.606 264.732V254.859L136.155 254.962C143.96 256.433 176.829 256.665 184.772 255.622L185.295 255.553Z" fill="#3F3D56"/>
<path d="M133.369 55.2528L82.0864 70.6897C80.4553 71.1827 79.0862 72.304 78.28 73.8074C77.4738 75.3108 77.2963 77.0733 77.7866 78.7076C78.2769 80.342 79.3949 81.7146 80.8949 82.5238C82.395 83.333 84.1544 83.5128 85.7866 83.0235L130.665 69.5115L131.605 69.2285C131.795 64.376 133.109 59.6342 135.444 55.378C135.151 55.2459 134.838 55.1644 134.518 55.1368C134.131 55.0993 133.741 55.1387 133.369 55.2528Z" fill="#004C88"/>
<path d="M84.8997 86.3146C84.2189 86.313 83.5559 86.097 83.0043 85.6974C82.4527 85.2978 82.0405 84.7346 81.8258 84.0876L78.619 74.3949C78.485 73.9902 78.432 73.5629 78.4629 73.1376C78.4938 72.7123 78.6081 72.2973 78.7992 71.9162C78.9902 71.5352 79.2544 71.1956 79.5765 70.9168C79.8986 70.638 80.2724 70.4255 80.6766 70.2914L122.416 56.4361C122.82 56.302 123.246 56.2488 123.671 56.2798C124.095 56.3107 124.51 56.4251 124.89 56.6164C125.27 56.8077 125.609 57.0722 125.888 57.3948C126.166 57.7174 126.378 58.0918 126.512 58.4965L129.719 68.1891C129.986 68.9863 129.932 69.8562 129.57 70.6146C129.208 71.373 128.565 71.9603 127.777 72.2521C127.739 72.2666 127.7 72.2803 127.661 72.2931L85.9226 86.1479C85.5927 86.2581 85.2474 86.3143 84.8997 86.3146Z" fill="#2F2E41"/>
<path d="M163.067 38.0393C154.643 38.0425 146.551 41.329 140.503 47.203C134.455 53.0771 130.927 61.0777 130.665 69.5115C130.655 69.8408 130.651 70.1748 130.651 70.5088C130.651 76.9307 132.552 83.2083 136.114 88.5479C139.676 93.8875 144.739 98.0492 150.662 100.507C156.585 102.964 163.103 103.607 169.391 102.354C175.679 101.102 181.455 98.0092 185.989 93.4682C190.522 88.9273 193.61 83.1418 194.861 76.8433C196.111 70.5448 195.469 64.0163 193.016 58.0833C190.562 52.1502 186.408 47.0792 181.077 43.5114C175.746 39.9436 169.478 38.0393 163.067 38.0393ZM163.067 102.051C154.718 102.042 146.713 98.716 140.81 92.8026C134.906 86.8893 131.586 78.8715 131.577 70.5088C131.577 70.0774 131.586 69.6507 131.605 69.2286C131.855 63.05 133.914 57.0815 137.524 52.0654C141.134 47.0492 146.137 43.2066 151.91 41.0154C157.683 38.8242 163.971 38.3811 169.994 39.7412C176.016 41.1012 181.507 44.2044 185.782 48.6649C190.058 53.1254 192.93 58.7464 194.042 64.829C195.154 70.9115 194.457 77.1873 192.036 82.8759C189.616 88.5645 185.579 93.4149 180.429 96.8241C175.278 100.233 169.241 102.051 163.067 102.051Z" fill="#3F3D56"/>
<path d="M190.389 70.5088C190.389 77.767 187.511 84.728 182.387 89.8603C177.263 94.9927 170.313 97.876 163.067 97.876C155.821 97.876 148.871 94.9927 143.747 89.8603C138.623 84.728 135.745 77.767 135.745 70.5088C135.745 69.6414 135.786 68.7879 135.865 67.9437C136.523 60.9388 139.85 54.4569 145.154 49.8441C150.458 45.2312 157.332 42.8418 164.349 43.1719C171.366 43.502 177.986 46.5263 182.835 51.6168C187.684 56.7073 190.389 63.4729 190.389 70.5088Z" fill="#E6E6E6"/>
<path d="M171.204 72.3271C170.541 71.4549 169.67 70.7641 168.671 70.3186C167.438 69.7982 166.165 69.3794 164.864 69.0662V61.6168C166.863 61.9187 168.739 62.7751 170.277 64.0891L171.787 60.8654C170.919 60.0905 169.922 59.4736 168.842 59.0424C167.644 58.5568 166.388 58.2339 165.105 58.0823V54.3065H161.608V58.1194C160.258 58.2713 158.956 58.7093 157.788 59.4042C156.733 60.0298 155.845 60.9019 155.199 61.9461C154.583 62.9652 154.264 64.1364 154.278 65.3276C154.217 66.6184 154.591 67.8922 155.338 68.9456C156.026 69.8576 156.934 70.5792 157.978 71.0422C159.23 71.578 160.525 72.0078 161.849 72.3271V79.4658C159.49 79.2875 157.242 78.389 155.408 76.8914L153.898 80.1198C154.923 80.9689 156.09 81.6314 157.343 82.0772C158.717 82.5697 160.153 82.8694 161.608 82.9678V86.7111H165.105V82.8983C167.047 82.6857 168.868 81.8493 170.296 80.5141C170.925 79.9099 171.422 79.1816 171.755 78.3752C172.088 77.5687 172.25 76.7018 172.232 75.8292C172.29 74.5795 171.928 73.3464 171.204 72.3271ZM161.849 68.2777C160.998 68.019 160.206 67.5933 159.52 67.0253C159.248 66.7831 159.033 66.4836 158.891 66.1484C158.748 65.8132 158.682 65.4505 158.696 65.0864C158.67 64.2602 158.973 63.4578 159.538 62.8553C160.165 62.2231 160.973 61.8031 161.849 61.6539V68.2777ZM167.059 78.1484C166.468 78.7553 165.699 79.1568 164.864 79.2941V73.1528C165.662 73.3673 166.409 73.7412 167.059 74.2521C167.305 74.463 167.501 74.7268 167.632 75.0239C167.763 75.321 167.825 75.6438 167.814 75.9683C167.846 76.7644 167.576 77.5432 167.059 78.1484Z" fill="#004C88"/>
<path d="M86.3881 125.598C85.6722 125.596 84.9767 125.359 84.4094 124.921C83.8422 124.484 83.4349 123.871 83.2506 123.178L81.5047 116.559C81.2862 115.727 81.406 114.842 81.8379 114.099C82.2698 113.355 82.9786 112.813 83.8086 112.593L138.889 98.0139C139.72 97.7967 140.603 97.918 141.345 98.3514C142.088 98.7848 142.628 99.4949 142.849 100.326L144.328 105.934L144.051 105.956C129.924 107.056 116.408 112.186 105.101 120.739L105.021 120.778L87.2105 125.491C86.9421 125.562 86.6657 125.598 86.3881 125.598Z" fill="#2F2E41"/>
<path d="M77.2657 158.293C70.8045 157.337 64.625 154.996 59.1486 151.431C56.4354 149.667 53.9237 147.609 51.6586 145.295C49.4228 143.011 47.284 140.415 46.1766 137.373C45.1111 134.559 45.166 131.442 46.33 128.667C47.478 125.909 49.6711 123.72 52.4283 122.579C55.202 121.471 58.5532 121.352 61.2527 122.566C62.5391 123.13 63.6522 124.028 64.4778 125.166C64.8616 125.691 65.1458 126.282 65.3161 126.909C65.4742 127.478 65.4886 128.077 65.358 128.653C65.1997 129.228 64.9205 129.762 64.5393 130.22C64.158 130.678 63.6834 131.048 63.1472 131.307C61.9674 131.914 60.6889 132.304 59.3721 132.461C58.0476 132.642 56.1449 132.806 55.0802 131.741C54.861 131.531 54.6886 131.276 54.5742 130.994C54.4941 130.778 54.4668 130.546 54.4944 130.318C54.4788 130.419 54.5586 130.099 54.554 130.111C54.5372 130.159 54.4643 130.274 54.5679 130.097C54.6003 130.039 54.6364 129.982 54.6759 129.929C54.6407 129.974 54.5634 130.05 54.7014 129.92C54.8155 129.795 54.9621 129.704 55.1248 129.658C55.1889 129.639 55.254 129.624 55.3182 129.607C55.4816 129.562 55.1554 129.609 55.3225 129.604C55.387 129.602 55.4523 129.603 55.5166 129.6C55.6805 129.593 55.3548 129.556 55.5119 129.595C55.5729 129.611 55.6334 129.626 55.6935 129.645C55.8241 129.686 55.601 129.549 55.6895 129.651C55.7932 129.772 55.5806 129.534 55.6985 129.651C55.7571 129.708 55.8124 129.769 55.8641 129.834C56.0686 130.036 56.3443 130.149 56.6317 130.149C56.919 130.149 57.1948 130.036 57.3993 129.834C57.5968 129.626 57.707 129.351 57.707 129.065C57.707 128.778 57.5968 128.503 57.3993 128.296C56.3289 126.967 54.2146 127.295 53.1317 128.419C51.7508 129.851 52.2977 132.122 53.6409 133.372C55.1616 134.787 57.3153 134.885 59.2713 134.648C60.9245 134.489 62.5354 134.033 64.0269 133.302C65.5089 132.572 66.6679 131.318 67.2797 129.782C67.5558 128.962 67.655 128.093 67.5707 127.232C67.4864 126.37 67.2204 125.537 66.7904 124.787C65.0634 121.534 61.4874 119.867 57.9527 119.578C56.1328 119.436 54.3028 119.656 52.5684 120.226C50.834 120.796 49.2298 121.705 47.8486 122.901C45.1863 125.301 43.5469 128.635 43.2694 132.213C42.9609 135.922 44.3975 139.523 46.4922 142.517C48.685 145.558 51.3018 148.269 54.2626 150.566C60.0509 155.195 66.8407 158.402 74.0884 159.932C74.9505 160.11 75.8172 160.263 76.6886 160.39C76.9658 160.457 77.2582 160.416 77.5063 160.275C77.7544 160.134 77.9395 159.903 78.0238 159.63C78.0983 159.352 78.0604 159.056 77.9186 158.806C77.7767 158.555 77.5422 158.371 77.2657 158.293L77.2657 158.293Z" fill="#3F3D56"/>
<path d="M180.713 111.037C171.247 110.904 161.81 111.144 152.403 111.759C149.188 111.97 146.406 113.108 146.406 115.021C146.406 116.621 149.166 118.495 152.403 118.283C161.805 117.668 171.242 117.427 180.713 117.561C188.435 117.67 188.43 111.146 180.713 111.037Z" fill="#CCCCCC"/>
<path d="M166.722 117.238C165.699 117.238 141.666 117.2 141.666 113.875C141.666 110.55 165.699 110.511 166.722 110.511C167.745 110.511 191.778 110.55 191.778 113.875C191.778 117.2 167.745 117.238 166.722 117.238ZM142.606 113.875C143.263 114.883 152.097 116.31 166.722 116.31C181.346 116.31 190.18 114.883 190.838 113.875C190.18 112.867 181.346 111.439 166.722 111.439C152.097 111.439 143.263 112.867 142.606 113.875V113.875Z" fill="#3F3D56"/>
<path d="M242.971 204.651C248.292 204.503 254.913 204.318 260.014 200.585C261.533 199.429 262.781 197.953 263.67 196.262C264.56 194.571 265.069 192.706 265.163 190.797C265.268 187.849 264.204 185.276 262.17 183.554C259.505 181.299 255.615 180.77 251.422 182.004L255.766 150.208L252.578 149.771L247.471 187.151L250.134 185.927C253.221 184.509 257.459 183.787 260.092 186.016C260.739 186.599 261.242 187.323 261.564 188.132C261.886 188.942 262.017 189.815 261.947 190.683C261.869 192.104 261.486 193.491 260.825 194.751C260.164 196.01 259.239 197.112 258.115 197.982C254.145 200.886 248.868 201.261 242.882 201.428L242.971 204.651Z" fill="#3F3D56"/>
<path d="M234.155 152.95H216.82V156.174H234.155V152.95Z" fill="#3F3D56"/>
<path d="M94.2321 140.425C93.4605 140.423 92.715 140.145 92.1292 139.642C91.5433 139.139 91.1554 138.444 91.0349 137.68L89.9769 130.917C89.8447 130.066 90.0549 129.197 90.5612 128.502C91.0675 127.806 91.8287 127.34 92.6777 127.206L148.958 118.373C149.807 118.241 150.674 118.451 151.368 118.958C152.063 119.466 152.528 120.228 152.662 121.078L153.72 127.842C153.852 128.693 153.642 129.561 153.136 130.257C152.63 130.952 151.868 131.419 151.019 131.553L94.7393 140.385C94.5715 140.412 94.402 140.425 94.2321 140.425Z" fill="#2F2E41"/>
<path d="M70.9406 61.1609C83.9843 61.1609 94.5582 50.5695 94.5582 37.5045C94.5582 24.4394 83.9843 13.8481 70.9406 13.8481C57.8969 13.8481 47.323 24.4394 47.323 37.5045C47.323 50.5695 57.8969 61.1609 70.9406 61.1609Z" fill="#004C88"/>
<path d="M84.3125 43.6254C85.0673 43.361 85.7568 42.9377 86.3347 42.3841C86.7171 41.9894 87.0087 41.5157 87.189 40.9963C87.3694 40.4768 87.4342 39.9242 87.3789 39.377C87.3468 38.987 87.2251 38.6097 87.0233 38.2746C86.8214 37.9396 86.545 37.6558 86.2156 37.4454C85.3608 36.919 84.2314 36.9388 83.0911 37.4683L82.9595 28.234L82.0335 28.2472L82.1882 39.1031L82.8931 38.64C83.7106 38.1038 84.8852 37.715 85.7303 38.2357C85.9393 38.3735 86.1138 38.5578 86.2401 38.7742C86.3664 38.9906 86.4412 39.2332 86.4587 39.4832C86.4977 39.8909 86.4485 40.3021 86.3146 40.689C86.1806 41.0759 85.965 41.4294 85.6825 41.7253C84.6785 42.7231 83.1925 43.0575 81.4965 43.3632L81.6606 44.2762C82.5622 44.139 83.4497 43.9213 84.3125 43.6254Z" fill="white"/>
<path d="M92.4964 27.5859L87.5643 28.334L87.703 29.2512L92.635 28.503L92.4964 27.5859Z" fill="white"/>
<path d="M76.9287 29.9469L71.9966 30.695L72.1353 31.6121L77.0673 30.864L76.9287 29.9469Z" fill="white"/>
<path d="M86.5482 140.011C85.6988 140.01 84.8701 139.749 84.1724 139.264C83.4746 138.778 82.9409 138.092 82.6423 137.296L66.3586 93.6153C64.3683 88.2582 64.5808 82.329 66.9495 77.1287C69.3182 71.9283 73.6497 67.8815 78.9936 65.876L92.2342 60.9238C92.7461 60.731 93.2911 60.6415 93.8378 60.6606C94.3844 60.6796 94.9219 60.8067 95.4193 61.0346C95.9155 61.2566 96.3625 61.5755 96.7343 61.9726C97.106 62.3697 97.3951 62.837 97.5844 63.3472L127.749 120.393C127.944 120.908 128.037 121.456 128.02 122.006C128.004 122.556 127.879 123.098 127.653 123.6C127.426 124.102 127.103 124.553 126.702 124.93C126.301 125.306 125.829 125.599 125.314 125.792L88.0047 139.746C87.539 139.921 87.0456 140.011 86.5482 140.011Z" fill="#2F2E41"/>
<path d="M88.217 62.4261L118.146 102.515L97.8944 62.8469C97.7271 62.3841 97.4705 61.9588 97.1391 61.5953C96.8077 61.2318 96.408 60.9373 95.963 60.7286C95.5179 60.5198 95.0362 60.4009 94.5453 60.3787C94.0544 60.3565 93.5639 60.4314 93.1018 60.5991L88.217 62.4261Z" fill="#E6E6E6"/>
<path d="M135.606 92.871L82.1675 89.4232C81.3252 89.3688 80.5018 89.1488 79.7444 88.7758C78.9869 88.4027 78.3103 87.8838 77.753 87.2488C77.1958 86.6138 76.7689 85.8751 76.4966 85.0748C76.2244 84.2745 76.1122 83.4284 76.1665 82.5847C76.2207 81.741 76.4404 80.9163 76.8128 80.1576C77.1853 79.3989 77.7033 78.7211 78.3373 78.163C78.9712 77.6048 79.7088 77.1772 80.5077 76.9045C81.3067 76.6319 82.1515 76.5195 82.9938 76.5738L136.432 80.0214C136.827 80.0469 137.212 80.1499 137.567 80.3246C137.922 80.4993 138.239 80.7422 138.5 81.0396C138.761 81.337 138.961 81.683 139.088 82.0577C139.216 82.4325 139.268 82.8288 139.243 83.2239L138.803 90.056C138.752 90.854 138.386 91.5989 137.787 92.1268C137.187 92.6547 136.403 92.9224 135.606 92.871Z" fill="#004C88"/>
<path d="M121.326 95.0813C121.256 95.0813 121.185 95.0791 121.114 95.0746H121.114L77.2335 92.2434C76.8086 92.2161 76.3934 92.1052 76.0113 91.917C75.6293 91.7289 75.288 91.4673 75.007 91.147C74.7259 90.8267 74.5106 90.4542 74.3733 90.0505C74.236 89.6469 74.1795 89.2202 74.2068 88.7947L74.9572 77.125C74.9846 76.6995 75.0954 76.2836 75.2832 75.9009C75.4711 75.5183 75.7324 75.1765 76.0521 74.895C76.3719 74.6135 76.7439 74.3978 77.1469 74.2604C77.5499 74.1229 77.9759 74.0662 78.4007 74.0937L122.281 76.9246C123.139 76.9809 123.939 77.3756 124.507 78.0221C125.074 78.6687 125.362 79.5142 125.308 80.3733L124.558 92.0432C124.516 92.6685 124.296 93.2686 123.922 93.7714C123.549 94.2742 123.038 94.6583 122.452 94.8777C122.092 95.0126 121.711 95.0816 121.326 95.0813Z" fill="#2F2E41"/>
<path d="M70.6698 21.7734C73.7768 19.0968 78.0435 21.4912 81.6065 21.0721C85.0154 20.671 87.7072 17.6082 88.3948 14.3544C89.197 10.5582 87.2299 6.75505 84.3304 4.38821C81.1548 1.79595 76.9431 1.05177 72.9521 1.53136C68.3778 2.08102 64.1945 4.21675 60.4408 6.80002C56.8175 9.21627 53.4855 12.0443 50.5113 15.2278C47.848 18.174 45.5915 21.6859 44.871 25.6504C44.2162 29.2534 44.7162 33.246 46.8426 36.2982C47.9702 37.8626 49.4813 39.1095 51.23 39.9186C53.0534 40.8155 54.9984 41.4566 56.765 42.4706C59.4359 44.0038 62.0319 47.1828 61.1952 50.491C61.0159 51.2137 60.6619 51.8811 60.1644 52.4346C59.5667 53.0991 58.4886 52.2209 59.0879 51.5546C60.1404 50.3843 60.0989 48.8235 59.538 47.4262C58.871 45.8517 57.6899 44.5508 56.1883 43.7366C54.3391 42.6777 52.2976 42.024 50.4024 41.0595C48.5884 40.1784 47.0137 38.8713 45.8125 37.2495C43.5442 34.0921 42.8657 29.9829 43.3801 26.1815C43.9368 22.0679 46.0469 18.3299 48.6921 15.1974C51.5708 11.7883 55.1068 8.90266 58.7191 6.31028C62.5952 3.52864 66.8776 1.17695 71.6163 0.326386C75.724 -0.410923 80.1764 0.0430113 83.7684 2.2852C87.1213 4.37813 89.6924 7.97839 89.9481 12.0013C90.0399 13.8318 89.6431 15.6536 88.7985 17.2794C87.954 18.9053 86.6922 20.2763 85.1429 21.2515C83.5533 22.2043 81.7051 22.6332 79.8591 22.4776C77.8856 22.351 75.9102 21.7457 73.924 21.9138C73.0253 21.9684 72.1688 22.315 71.4845 22.9011C70.8056 23.4859 69.9966 22.3534 70.6698 21.7734V21.7734Z" fill="#DADAE9"/>
</svg>
